<?xml version="1.0" encoding="UTF-8" standalone="no"?>
<svg width="50px" height="25px" viewBox="0 0 95 28" version="1.1" xmlns="http://www.w3.org/2000/svg" xmlns:xlink="http://www.w3.org/1999/xlink">
    <!-- Generator: Sketch 41 (35326) - http://www.bohemiancoding.com/sketch -->
    <title>码云logo</title>
    <desc>Created with Sketch.</desc>
    <defs></defs>
    <g id="项目主页" stroke="none" stroke-width="1" fill="none" fill-rule="evenodd">
        <g id="切图-iconfont" transform="translate(-44.000000, -405.000000)">
            <g id="码云logo" transform="translate(75.000000, 405.000000)">
                <polygon id="XMLID_215_" fill="#C71D24" points="27.1407407 15.9833333 27.1407407 19.7166667 27.1407407 23.5666667 23.3481481 23.5666667 19.437037 23.5666667 15.6444444 23.5666667 11.7333333 23.5666667 7.82222222 23.5666667 4.02962963 23.5666667 4.02962963 19.7166667 4.02962963 15.9833333 4.02962963 12.1333333 4.02962963 8.28333333 4.02962963 4.55 7.82222222 4.55 11.7333333 4.55 15.6444444 4.55 19.437037 4.55 19.437037 8.28333333 19.437037 12.1333333 19.437037 15.9833333 15.6444444 15.9833333 11.7333333 15.9833333 11.7333333 12.1333333 15.6444444 12.1333333 15.6444444 8.28333333 11.7333333 8.28333333 7.82222222 8.28333333 7.82222222 12.1333333 7.82222222 15.9833333 7.82222222 19.7166667 11.7333333 19.7166667 15.6444444 19.7166667 19.437037 19.7166667 23.3481481 19.7166667 23.3481481 15.9833333 23.3481481 12.1333333 23.3481481 8.28333333 23.3481481 4.55 23.3481481 0.7 19.437037 0.7 15.6444444 0.7 11.7333333 0.7 7.82222222 0.7 4.02962963 0.7 0.118518519 0.7 0.118518519 4.55 0.118518519 8.28333333 0.118518519 12.1333333 0.118518519 15.9833333 0.118518519 19.7166667 0.118518519 23.5666667 0.118518519 27.4166667 4.02962963 27.4166667 7.82222222 27.4166667 11.7333333 27.4166667 15.6444444 27.4166667 19.437037 27.4166667 23.3481481 27.4166667 27.1407407 27.4166667 31.0518519 27.4166667 31.0518519 23.5666667 31.0518519 19.7166667 31.0518519 15.9833333"></polygon>
                <rect id="XMLID_212_" fill="#C71D24" opacity="0.600000024" x="27.1407407" y="0.7" width="3.91111111" height="3.85"></rect>
                <rect id="XMLID_209_" fill="#C71D24" opacity="0.800000012" x="27.1407407" y="8.86666667" width="3.91111111" height="3.85"></rect>
            </g>
        </g>
    </g>
</svg>